<mxfile host="app.diagrams.net" modified="2023-05-27T17:41:47.847Z" agent="Mozilla/5.0 (Windows NT 10.0; Win64; x64) AppleWebKit/537.36 (KHTML, like Gecko) Chrome/113.0.0.0 Safari/537.36" etag="4GdiHMlc1CS0EvCe5t_2" version="21.3.4" type="github">
  <diagram name="Page-1" id="gevgtCYCmnOtVQF81eDp">
    <mxGraphModel dx="2074" dy="1116" grid="1" gridSize="10" guides="1" tooltips="1" connect="1" arrows="1" fold="1" page="1" pageScale="1" pageWidth="850" pageHeight="1100" math="0" shadow="0">
      <root>
        <mxCell id="0" />
        <mxCell id="1" parent="0" />
        <mxCell id="SPAmeKjBFuL3MiQ65xlV-3" value="" style="edgeStyle=orthogonalEdgeStyle;rounded=0;orthogonalLoop=1;jettySize=auto;html=1;" edge="1" parent="1" source="SPAmeKjBFuL3MiQ65xlV-1">
          <mxGeometry relative="1" as="geometry">
            <mxPoint x="150" y="130" as="targetPoint" />
          </mxGeometry>
        </mxCell>
        <mxCell id="SPAmeKjBFuL3MiQ65xlV-1" value="Start" style="rounded=1;whiteSpace=wrap;html=1;" vertex="1" parent="1">
          <mxGeometry x="90" y="20" width="120" height="60" as="geometry" />
        </mxCell>
        <mxCell id="SPAmeKjBFuL3MiQ65xlV-7" value="" style="edgeStyle=orthogonalEdgeStyle;rounded=0;orthogonalLoop=1;jettySize=auto;html=1;" edge="1" parent="1" source="SPAmeKjBFuL3MiQ65xlV-4">
          <mxGeometry relative="1" as="geometry">
            <mxPoint x="720" y="220" as="targetPoint" />
          </mxGeometry>
        </mxCell>
        <mxCell id="SPAmeKjBFuL3MiQ65xlV-4" value="input birth_month" style="shape=parallelogram;perimeter=parallelogramPerimeter;whiteSpace=wrap;html=1;fixedSize=1;rounded=1;fillColor=#fa6800;fontColor=#000000;strokeColor=#C73500;" vertex="1" parent="1">
          <mxGeometry x="660" y="120" width="120" height="60" as="geometry" />
        </mxCell>
        <mxCell id="SPAmeKjBFuL3MiQ65xlV-6" value="input birth_year" style="shape=parallelogram;perimeter=parallelogramPerimeter;whiteSpace=wrap;html=1;fixedSize=1;rounded=1;fillColor=#fa6800;fontColor=#000000;strokeColor=#C73500;" vertex="1" parent="1">
          <mxGeometry x="660" y="220" width="120" height="60" as="geometry" />
        </mxCell>
        <mxCell id="SPAmeKjBFuL3MiQ65xlV-13" value="" style="edgeStyle=orthogonalEdgeStyle;rounded=0;orthogonalLoop=1;jettySize=auto;html=1;" edge="1" parent="1" source="SPAmeKjBFuL3MiQ65xlV-8">
          <mxGeometry relative="1" as="geometry">
            <mxPoint x="150" y="440" as="targetPoint" />
          </mxGeometry>
        </mxCell>
        <mxCell id="SPAmeKjBFuL3MiQ65xlV-8" value="" style="swimlane;fontStyle=0;childLayout=stackLayout;horizontal=1;startSize=20;horizontalStack=0;resizeParent=1;resizeParentMax=0;resizeLast=0;collapsible=1;marginBottom=0;whiteSpace=wrap;html=1;fillColor=#e3c800;fontColor=#000000;strokeColor=#B09500;" vertex="1" parent="1">
          <mxGeometry x="70" y="230" width="160" height="50" as="geometry" />
        </mxCell>
        <mxCell id="SPAmeKjBFuL3MiQ65xlV-9" value="calculate_age_in_months()" style="text;strokeColor=#B09500;fillColor=#e3c800;align=left;verticalAlign=middle;spacingLeft=4;spacingRight=4;overflow=hidden;points=[[0,0.5],[1,0.5]];portConstraint=eastwest;rotatable=0;whiteSpace=wrap;html=1;fontColor=#000000;" vertex="1" parent="SPAmeKjBFuL3MiQ65xlV-8">
          <mxGeometry y="20" width="160" height="30" as="geometry" />
        </mxCell>
        <mxCell id="SPAmeKjBFuL3MiQ65xlV-16" value="" style="edgeStyle=orthogonalEdgeStyle;rounded=0;orthogonalLoop=1;jettySize=auto;html=1;" edge="1" parent="1" source="SPAmeKjBFuL3MiQ65xlV-14">
          <mxGeometry relative="1" as="geometry">
            <mxPoint x="430" y="130" as="targetPoint" />
          </mxGeometry>
        </mxCell>
        <mxCell id="SPAmeKjBFuL3MiQ65xlV-14" value="calculate_age&lt;br&gt;_in_months" style="rounded=1;whiteSpace=wrap;html=1;fillColor=#1ba1e2;fontColor=#ffffff;strokeColor=#006EAF;" vertex="1" parent="1">
          <mxGeometry x="370" y="20" width="120" height="60" as="geometry" />
        </mxCell>
        <mxCell id="SPAmeKjBFuL3MiQ65xlV-18" value="" style="edgeStyle=orthogonalEdgeStyle;rounded=0;orthogonalLoop=1;jettySize=auto;html=1;" edge="1" parent="1" source="SPAmeKjBFuL3MiQ65xlV-15" target="SPAmeKjBFuL3MiQ65xlV-17">
          <mxGeometry relative="1" as="geometry" />
        </mxCell>
        <mxCell id="SPAmeKjBFuL3MiQ65xlV-15" value="Get current date" style="whiteSpace=wrap;html=1;rounded=1;fillColor=#1ba1e2;fontColor=#ffffff;strokeColor=#006EAF;" vertex="1" parent="1">
          <mxGeometry x="370" y="130" width="120" height="60" as="geometry" />
        </mxCell>
        <mxCell id="SPAmeKjBFuL3MiQ65xlV-20" value="" style="edgeStyle=orthogonalEdgeStyle;rounded=0;orthogonalLoop=1;jettySize=auto;html=1;" edge="1" parent="1" source="SPAmeKjBFuL3MiQ65xlV-17" target="SPAmeKjBFuL3MiQ65xlV-19">
          <mxGeometry relative="1" as="geometry" />
        </mxCell>
        <mxCell id="SPAmeKjBFuL3MiQ65xlV-17" value="Create birthdate using birth month&lt;br&gt;and birth year" style="whiteSpace=wrap;html=1;rounded=1;fillColor=#1ba1e2;fontColor=#ffffff;strokeColor=#006EAF;" vertex="1" parent="1">
          <mxGeometry x="370" y="225" width="120" height="60" as="geometry" />
        </mxCell>
        <mxCell id="SPAmeKjBFuL3MiQ65xlV-22" value="" style="edgeStyle=orthogonalEdgeStyle;rounded=0;orthogonalLoop=1;jettySize=auto;html=1;" edge="1" parent="1" source="SPAmeKjBFuL3MiQ65xlV-19" target="SPAmeKjBFuL3MiQ65xlV-21">
          <mxGeometry relative="1" as="geometry" />
        </mxCell>
        <mxCell id="SPAmeKjBFuL3MiQ65xlV-19" value="age in months = (current_year - birth_year) * 12 + (current_month -&lt;br&gt;birth_month)" style="whiteSpace=wrap;html=1;rounded=1;fillColor=#1ba1e2;fontColor=#ffffff;strokeColor=#006EAF;" vertex="1" parent="1">
          <mxGeometry x="320" y="330" width="220" height="100" as="geometry" />
        </mxCell>
        <mxCell id="SPAmeKjBFuL3MiQ65xlV-21" value="return&lt;br&gt;age_in_months" style="whiteSpace=wrap;html=1;rounded=1;fillColor=#1ba1e2;fontColor=#ffffff;strokeColor=#006EAF;" vertex="1" parent="1">
          <mxGeometry x="370" y="450" width="120" height="60" as="geometry" />
        </mxCell>
        <mxCell id="SPAmeKjBFuL3MiQ65xlV-23" value="Start" style="rounded=1;whiteSpace=wrap;html=1;fillColor=#1ba1e2;fontColor=#ffffff;strokeColor=#006EAF;" vertex="1" parent="1">
          <mxGeometry x="90" y="20" width="120" height="60" as="geometry" />
        </mxCell>
        <mxCell id="SPAmeKjBFuL3MiQ65xlV-24" value="import date time&lt;br&gt;" style="whiteSpace=wrap;html=1;rounded=1;fillColor=#1ba1e2;fontColor=#ffffff;strokeColor=#006EAF;" vertex="1" parent="1">
          <mxGeometry x="90" y="130" width="120" height="60" as="geometry" />
        </mxCell>
        <mxCell id="SPAmeKjBFuL3MiQ65xlV-25" value="End" style="rounded=1;whiteSpace=wrap;html=1;fillColor=#1ba1e2;fontColor=#ffffff;strokeColor=#006EAF;" vertex="1" parent="1">
          <mxGeometry x="90" y="440" width="120" height="60" as="geometry" />
        </mxCell>
        <mxCell id="SPAmeKjBFuL3MiQ65xlV-26" value="function calculate_age_in_months(birth_month, birth_year)&lt;br&gt;&lt;span style=&quot;white-space: pre;&quot;&gt;	&lt;/span&gt;current_date = datetime.datetime.now().date()&lt;br&gt;&lt;span style=&quot;white-space: pre;&quot;&gt;	&lt;/span&gt;birth_date = datetime.date(birth_year, birth_month, 1)&lt;br&gt;&lt;span style=&quot;white-space: pre;&quot;&gt;	&lt;/span&gt;&lt;br&gt;&lt;span style=&quot;white-space: pre;&quot;&gt;	&lt;/span&gt;age_in_months = (current_year - birth_year) * 12 +&lt;br&gt;&lt;span style=&quot;white-space: pre;&quot;&gt;	&lt;/span&gt;(current_month - birth_month)&lt;br&gt;&lt;br&gt;&lt;span style=&quot;white-space: pre;&quot;&gt;	&lt;/span&gt;return age_in_months&lt;br&gt;&lt;br&gt;function main()&lt;br&gt;&lt;span style=&quot;white-space: pre;&quot;&gt;	&lt;/span&gt;birth_month = input (&quot;Enter birth month: &quot;)&lt;br&gt;&lt;span style=&quot;white-space: pre;&quot;&gt;	&lt;/span&gt;birth_year = input (Enter birth year: &quot;)&lt;br&gt;&lt;span style=&quot;white-space: pre;&quot;&gt;	&lt;/span&gt;&lt;br&gt;&lt;span style=&quot;white-space: pre;&quot;&gt;	&lt;/span&gt;age_in_months = calculate_age_in_months(birth_month, &lt;span style=&quot;white-space: pre;&quot;&gt;	&lt;/span&gt;birth_year)&lt;br&gt;&lt;br&gt;&lt;span style=&quot;white-space: pre;&quot;&gt;	&lt;/span&gt;output age_in_months)&lt;br&gt;&lt;br&gt;main()" style="text;html=1;strokeColor=none;fillColor=none;align=left;verticalAlign=middle;whiteSpace=wrap;rounded=0;" vertex="1" parent="1">
          <mxGeometry x="30" y="720" width="380" height="300" as="geometry" />
        </mxCell>
        <mxCell id="SPAmeKjBFuL3MiQ65xlV-27" value="" style="endArrow=none;html=1;rounded=0;" edge="1" parent="1">
          <mxGeometry width="50" height="50" relative="1" as="geometry">
            <mxPoint x="10" y="710" as="sourcePoint" />
            <mxPoint x="400" y="710" as="targetPoint" />
            <Array as="points">
              <mxPoint x="150" y="710" />
            </Array>
          </mxGeometry>
        </mxCell>
        <mxCell id="SPAmeKjBFuL3MiQ65xlV-28" value="" style="endArrow=none;html=1;rounded=0;" edge="1" parent="1">
          <mxGeometry width="50" height="50" relative="1" as="geometry">
            <mxPoint x="10" y="710" as="sourcePoint" />
            <mxPoint x="10" y="1010" as="targetPoint" />
          </mxGeometry>
        </mxCell>
        <mxCell id="SPAmeKjBFuL3MiQ65xlV-29" value="" style="swimlane;fontStyle=0;childLayout=stackLayout;horizontal=1;startSize=20;horizontalStack=0;resizeParent=1;resizeParentMax=0;resizeLast=0;collapsible=1;marginBottom=0;whiteSpace=wrap;html=1;fillColor=#e3c800;fontColor=#000000;strokeColor=#B09500;" vertex="1" parent="1">
          <mxGeometry x="70" y="330" width="160" height="50" as="geometry" />
        </mxCell>
        <mxCell id="SPAmeKjBFuL3MiQ65xlV-30" value="main()" style="text;strokeColor=#B09500;fillColor=#e3c800;align=left;verticalAlign=middle;spacingLeft=4;spacingRight=4;overflow=hidden;points=[[0,0.5],[1,0.5]];portConstraint=eastwest;rotatable=0;whiteSpace=wrap;html=1;fontColor=#000000;" vertex="1" parent="SPAmeKjBFuL3MiQ65xlV-29">
          <mxGeometry y="20" width="160" height="30" as="geometry" />
        </mxCell>
        <mxCell id="SPAmeKjBFuL3MiQ65xlV-31" value="" style="edgeStyle=orthogonalEdgeStyle;rounded=0;orthogonalLoop=1;jettySize=auto;html=1;" edge="1" parent="1" source="SPAmeKjBFuL3MiQ65xlV-32">
          <mxGeometry relative="1" as="geometry">
            <mxPoint x="720" y="120" as="targetPoint" />
          </mxGeometry>
        </mxCell>
        <mxCell id="SPAmeKjBFuL3MiQ65xlV-32" value="calculate_age&lt;br&gt;_in_months" style="rounded=1;whiteSpace=wrap;html=1;fillColor=#1ba1e2;fontColor=#ffffff;strokeColor=#006EAF;" vertex="1" parent="1">
          <mxGeometry x="660" y="20" width="120" height="60" as="geometry" />
        </mxCell>
        <mxCell id="SPAmeKjBFuL3MiQ65xlV-35" value="" style="edgeStyle=orthogonalEdgeStyle;rounded=0;orthogonalLoop=1;jettySize=auto;html=1;" edge="1" parent="1" target="SPAmeKjBFuL3MiQ65xlV-38">
          <mxGeometry relative="1" as="geometry">
            <mxPoint x="720" y="280" as="sourcePoint" />
          </mxGeometry>
        </mxCell>
        <mxCell id="SPAmeKjBFuL3MiQ65xlV-37" value="" style="edgeStyle=orthogonalEdgeStyle;rounded=0;orthogonalLoop=1;jettySize=auto;html=1;entryX=0.5;entryY=0;entryDx=0;entryDy=0;" edge="1" parent="1" source="SPAmeKjBFuL3MiQ65xlV-38" target="SPAmeKjBFuL3MiQ65xlV-40">
          <mxGeometry relative="1" as="geometry">
            <mxPoint x="720" y="530" as="targetPoint" />
          </mxGeometry>
        </mxCell>
        <mxCell id="SPAmeKjBFuL3MiQ65xlV-38" value="age_in_months = calculate_age_in_months" style="whiteSpace=wrap;html=1;rounded=1;fillColor=#1ba1e2;fontColor=#ffffff;strokeColor=#006EAF;" vertex="1" parent="1">
          <mxGeometry x="610" y="330" width="220" height="100" as="geometry" />
        </mxCell>
        <mxCell id="SPAmeKjBFuL3MiQ65xlV-40" value="output&lt;br&gt;(age_in_months)" style="shape=parallelogram;perimeter=parallelogramPerimeter;whiteSpace=wrap;html=1;fixedSize=1;rounded=1;fillColor=#fa6800;fontColor=#000000;strokeColor=#C73500;" vertex="1" parent="1">
          <mxGeometry x="660" y="450" width="120" height="60" as="geometry" />
        </mxCell>
      </root>
    </mxGraphModel>
  </diagram>
</mxfile>
